<?xml version="1.0" encoding="utf-8"?>
<!-- Generator: Adobe Illustrator 16.0.0, SVG Export Plug-In . SVG Version: 6.00 Build 0)  -->
<!DOCTYPE svg PUBLIC "-//W3C//DTD SVG 1.1//EN" "http://www.w3.org/Graphics/SVG/1.1/DTD/svg11.dtd">
<svg version="1.1" id="Layer_1" xmlns="http://www.w3.org/2000/svg" xmlns:xlink="http://www.w3.org/1999/xlink" x="0px" y="0px"
	 width="134.667px" height="146.667px" viewBox="0 0 134.667 146.667" enable-background="new 0 0 134.667 146.667"
	 xml:space="preserve">
<path fill="#231F20" d="M88.664,107.492c-2.809,0-12.029-0.293-12.787-4.062c-0.727-3.603,0.938-4.7,2.404-5.667
	c1.262-0.833,2.352-1.551,2.207-3.838c-0.343-5.403-6.99-7.469-12.507-8.25c-1.686-0.238-3.016-0.35-4.186-0.35
	c-4.167,0-6.481,1.486-7.988,5.129c-1.043,2.522,0.384,4.33,1.895,6.244c1.537,1.947,3.127,3.961,2.2,6.789
	c-0.623,1.9-3.643,2.824-9.233,2.824c-9.024,0-21.854-2.464-21.983-2.488l-0.509-0.099l0.117-0.505
	c1.849-7.987,5.576-29.36,0.691-32.292c-0.886-0.532-1.664-0.791-2.376-0.791c-1.183,0-2.081,0.736-3.031,1.515
	c-1.067,0.875-2.17,1.779-3.773,1.779c-0.76,0-1.548-0.205-2.409-0.628c-5.679-2.788-4.448-9-3.259-15.008l0.139-0.704
	c1.255-6.391,4.906-10.27,9.384-9.921c1.549,0.121,3.581,1.942,5.732,3.871c1.906,1.709,4.067,3.646,5.274,3.646l0,0
	c0.249,0,0.565-0.077,0.813-0.675c1.326-3.194-1.203-19.575-2.725-27.791l-0.143-0.77l0.758,0.194
	c0.14,0.036,14.058,3.574,22.281,3.574c3.424,0,5.359-0.602,5.597-1.74c0.536-2.574-0.642-3.904-2.133-5.588
	c-1.413-1.595-3.014-3.404-3.267-6.613c-0.247-3.137,0.847-6.273,3.001-8.604c2.407-2.604,5.957-4.038,9.995-4.038l0.214,0.001
	c6.399,0.077,13.501,3.918,13.969,12.169c0.253,4.453-1.508,6.56-2.922,8.254c-1.203,1.44-1.998,2.392-1.125,4.314
	c0.53,1.168,2.89,1.737,7.207,1.737c2.483,0,5.376-0.184,8.172-0.361c2.765-0.176,5.622-0.357,8.054-0.357
	c4.129,0,6.383,0.525,7.307,1.703c3.656,4.659,3.224,17.638-0.811,24.364c-1.039,1.73-2.105,2.537-3.359,2.537
	c-1.227,0-2.389-0.805-3.62-1.657c-1.427-0.987-2.9-2.008-4.658-2.008c-0.378,0-0.763,0.049-1.144,0.146
	c-5.211,1.324-4.987,5.179-4.648,11.015l0.02,0.33c0.35,6.042,1.057,8.778,6.355,9.619c2.57,0.406,4.596-2.112,6.207-4.113
	c1.163-1.443,2.08-2.583,3.093-2.583c1.087,0,1.615,1.325,1.788,1.761c2.232,5.592,2.412,27.6-2.15,33.409
	C104.43,105.919,95.884,107.492,88.664,107.492z"/>
<path fill="#FFFFFF" d="M63.794,84.326c1.217,0,2.592,0.113,4.327,0.359c8.438,1.195,13.059,4.367,13.364,9.176
	c0.183,2.866-1.323,3.859-2.653,4.736c-1.436,0.945-2.568,1.693-1.976,4.636c0.394,1.95,5.138,3.259,11.808,3.259
	c8.008,0,15.463-1.804,17.34-4.195c4.293-5.463,4.123-27.117,2.008-32.418c-0.287-0.719-0.6-1.131-0.859-1.131
	c-0.533,0-1.439,1.124-2.314,2.209c-1.764,2.19-4.014,4.976-7.143,4.474c-6.201-0.983-6.855-4.642-7.197-10.549l-0.019-0.33
	c-0.342-5.875-0.61-10.515,5.399-12.042c0.461-0.117,0.93-0.177,1.391-0.177c2.07,0,3.748,1.161,5.227,2.186
	c1.1,0.761,2.137,1.479,3.051,1.479c0.545,0,1.398-0.213,2.502-2.051c3.791-6.321,4.27-18.914,0.881-23.232
	c-0.697-0.888-2.829-1.32-6.52-1.32c-2.4,0-5.242,0.181-7.99,0.355c-2.812,0.179-5.719,0.363-8.235,0.363
	c-4.884,0-7.388-0.717-8.117-2.323c-1.133-2.495,0.033-3.891,1.269-5.369c1.369-1.64,2.922-3.498,2.691-7.556
	C81.712,9.35,77.578,3.74,69.044,3.638l-0.201-0.001c-3.757,0-7.046,1.32-9.262,3.717c-1.965,2.126-2.963,4.986-2.738,7.847
	c0.226,2.875,1.646,4.479,3.018,6.029c1.543,1.743,3.001,3.389,2.363,6.455c-0.355,1.706-2.506,2.536-6.575,2.536
	c-7.233,0-18.737-2.679-21.775-3.418c0.754,4.194,4.139,23.712,2.527,27.594c-0.443,1.068-1.189,1.292-1.737,1.292l0,0
	c-1.59,0-3.704-1.896-5.942-3.902c-1.842-1.652-3.931-3.524-5.142-3.618c-3.949-0.308-7.173,3.252-8.326,9.117l-0.14,0.706
	c-1.167,5.896-2.271,11.466,2.718,13.916c0.721,0.354,1.365,0.525,1.969,0.525c1.246,0,2.166-0.754,3.139-1.552
	c1.045-0.856,2.125-1.742,3.666-1.742c0.899,0,1.844,0.305,2.891,0.933c6.108,3.667,0.785,28.822-0.117,32.866
	c2.464,0.454,13.372,2.375,21.286,2.375c6.598,0,8.022-1.338,8.283-2.136c0.76-2.317-0.598-4.037-2.034-5.855
	c-1.547-1.961-3.301-4.183-2.034-7.246C56.548,86.044,59.213,84.326,63.794,84.326z"/>
<path fill="#FFFF00" d="M60.084,122.001c10.992-1.985,22.315,0.611,33.363,0.23c11.973-0.412,23.967-1.371,35.95-1.213
	c-0.046,3.604,3.063,3.926,3.015,7.759c-0.011,0.736-2.183,0.154-1.57,0.888c-3.514,0.102,0.181,2.477,0.207,2.44
	c0.285-0.368-0.965,3.745-0.414,4.272c0.599,0.576,0.9,3.705,0.99,3.693c1.842-0.259,1.979,1.84,0.449,2.264
	c-4.432,0.09-8.863,0.176-13.293,0.254c-8.982,0.156-17.966,0.271-26.949,0.271c-8.99,0.001-17.98-0.109-26.965-0.414
	c-4.441-0.15-8.88-0.349-13.316-0.605c-4.473-0.258-5.005-1.523-1.035-3.77c-1.558,0.883-2.65-4.154,0.944-4.631
	c-4.77,1.025-0.741-2.867-0.719-4.55c-1.039-0.015-2.077-0.026-3.115-0.041c2.837,0.038,0.332-2.55,3.48-2.274
	c1.729,0.151,0.969-0.443,1.15-1.5c-1.173-0.359-1.865,0.178-3.026,0.164c0.676-0.416,0.943-1.018,0.804-1.807
	c1.871-0.338,2.795,0.417,4.587-0.598l-2.335-0.031C53.872,120.557,57.741,122.425,60.084,122.001
	C67.82,120.604,57.741,122.425,60.084,122.001z"/>
<g>
	<path fill="#231F20" d="M20.69,124.11c-0.144-0.144-0.144-0.647,0-0.792c0.96,0.023,2.016,0.049,2.64,0.049
		c0.625,0,1.392-0.025,2.088-0.049c0.144,0.145,0.144,0.648,0,0.792c-1.32,0.072-1.754,0.632-2.064,1.464l-4.825,12.938
		c-0.12,0.359-0.288,0.623-0.552,0.623c-0.288,0-0.411-0.239-0.552-0.646l-2.76-7.97c-0.142-0.411-0.24-0.673-0.336-0.673
		c-0.12,0-0.194,0.121-0.408,0.602l-3.576,8.041c-0.178,0.396-0.312,0.646-0.624,0.646c-0.276,0-0.398-0.266-0.528-0.646
		l-4.512-12.986c-0.446-1.283-0.624-1.319-1.704-1.392c-0.144-0.144-0.144-0.647,0-0.792c0.696,0.023,1.399,0.049,2.232,0.049
		c0.937,0,1.992-0.025,2.785-0.049c0.144,0.145,0.144,0.648,0,0.792c-0.84,0.048-1.479,0.166-1.2,1.009l3.509,10.615l0.104,0.023
		l3.108-7.039c0.18-0.406,0.216-0.594,0.216-0.84c0-0.217-0.074-0.457-0.168-0.744l-0.552-1.584
		c-0.216-0.617-0.744-1.368-2.016-1.44c-0.144-0.144-0.144-0.647,0-0.792c0.768,0.023,1.608,0.049,2.4,0.049
		c0.96,0,2.016-0.025,3-0.049c0.144,0.145,0.144,0.648,0,0.792c-0.816,0.072-1.668,0.149-1.248,1.44l3.3,10.129l0.077,0.031
		l3.752-10.424C22.642,124.264,21.675,124.183,20.69,124.11z"/>
	<path fill="#231F20" d="M31.729,138.104c0.144,0.144,0.144,0.647,0,0.792c-0.792-0.023-1.705-0.048-2.665-0.048
		s-1.896,0.024-2.688,0.048c-0.144-0.145-0.144-0.648,0-0.792c1.464-0.12,1.728-0.192,1.728-2.185v-4.68
		c0-1.369-0.252-1.51-1.56-1.633c-0.048-0.145-0.096-0.527-0.048-0.672c1.656-0.217,2.604-0.432,3.289-0.695
		c0.192,0,0.312,0.071,0.312,0.168c0,0-0.096,1.535-0.096,2.729v4.783C30.001,137.912,30.265,138.007,31.729,138.104z
		 M29.065,123.318c0.648,0,1.152,0.672,1.152,1.248c0,0.506-0.576,1.152-1.248,1.152c-0.576,0-1.152-0.625-1.152-1.25
		C27.817,123.895,28.489,123.318,29.065,123.318z"/>
	<path fill="#231F20" d="M34.225,125.431c0-2.016-0.288-1.896-1.536-1.969c-0.144-0.144-0.192-0.527-0.144-0.719
		c0.96-0.072,2.76-0.408,3.36-0.648c0.216,0,0.312,0.072,0.312,0.24c0,0-0.096,0.959-0.096,2.521v8.372
		c0.454-0.062,1.099-0.346,1.632-0.738c0.617-0.457,1.368-1.273,1.92-1.969c0.223-0.281,0.792-1.128-0.552-1.225
		c-0.144-0.144-0.144-0.647,0-0.791c0.552,0.023,1.44,0.047,2.353,0.047c0.864,0,1.536-0.023,2.088-0.047
		c0.144,0.144,0.144,0.647,0,0.791c-0.96,0.097-1.8,0.289-2.52,1.057l-2.112,2.184c-0.096,0.096-0.096,0.145-0.096,0.24
		c0,0.12,0.082,0.229,0.168,0.336l3.168,3.984c0.641,0.806,1.248,0.912,2.064,1.008c0.144,0.145,0.144,0.648,0,0.792
		c-0.48-0.024-1.224-0.048-1.968-0.048c-0.48,0-1.008,0.023-1.488,0.048c-0.072,0-0.089-0.048-0.096-0.12
		c-0.031-0.281-0.302-0.732-1.008-1.68l-1.752-2.354c-0.285-0.384-0.504-0.6-0.768-0.779c-0.233-0.082-0.571-0.119-1.032-0.131
		v2.086c0,1.992,0.264,2.088,1.248,2.185c0.144,0.144,0.144,0.647,0,0.792c-0.552-0.023-1.344-0.048-2.184-0.048
		c-0.96,0-1.776,0.024-2.568,0.048c-0.144-0.145-0.144-0.648,0-0.792c1.344-0.097,1.608-0.192,1.608-2.185L34.225,125.431
		L34.225,125.431z"/>
	<path fill="#231F20" d="M50.521,138.104c0.144,0.144,0.144,0.647,0,0.792c-0.792-0.023-1.705-0.048-2.665-0.048
		s-1.896,0.024-2.688,0.048c-0.144-0.145-0.144-0.648,0-0.792c1.464-0.12,1.728-0.192,1.728-2.185v-4.68
		c0-1.369-0.252-1.51-1.56-1.633c-0.048-0.145-0.096-0.527-0.048-0.672c1.656-0.217,2.604-0.432,3.289-0.695
		c0.192,0,0.312,0.071,0.312,0.168c0,0-0.096,1.535-0.096,2.729v4.783C48.792,137.912,49.057,138.007,50.521,138.104z
		 M47.856,123.318c0.648,0,1.152,0.672,1.152,1.248c0,0.506-0.576,1.152-1.248,1.152c-0.576,0-1.152-0.625-1.152-1.25
		C46.608,123.895,47.28,123.318,47.856,123.318z"/>
	<path d="M51.84,131.408c0-2.504,0.95-4.855,2.544-6.314c1.417-1.295,3.121-2.039,5.161-2.039c2.952,0,4.032,0.96,5.256,1.08
		c0.24,1.32,0.408,2.472,0.528,3.72c-0.271,0.144-0.504,0.216-0.792,0.12c-0.624-2.064-1.944-4.032-5.256-4.032
		c-1.248,0-2.64,0.673-3.831,2.136c-0.876,1.078-1.426,2.801-1.426,4.873c0,3.504,2.242,7.152,5.473,7.152
		c2.232,0,3.864-0.744,5.568-2.615c0.264,0,0.432,0.143,0.552,0.359c-1.632,2.136-3.768,3.24-6.096,3.24
		C54.36,139.087,51.84,135.58,51.84,131.408z"/>
	<path d="M68.736,125.431c0-1.801-0.145-1.873-1.536-1.969c-0.144-0.144-0.192-0.527-0.144-0.719c0.96-0.072,2.76-0.408,3.359-0.648
		c0.217,0,0.312,0.072,0.312,0.24c0,0-0.096,0.959-0.096,2.521v11.065c0,1.992,0.264,2.111,1.728,2.184
		c0.144,0.145,0.144,0.648,0,0.792c-0.792-0.024-1.704-0.048-2.664-0.048s-1.848,0.023-2.688,0.048
		c-0.144-0.144-0.144-0.647,0-0.792c1.464-0.072,1.728-0.191,1.728-2.184V125.431z"/>
	<path d="M79.776,137.695l-0.479,0.385c-1.057,0.815-1.781,1.008-2.616,1.008c-1.681,0-3.024-0.625-3.024-2.592
		c0-1.633,1.656-2.904,3.961-3.48l2.063-0.504c0.071-0.023,0.144-0.12,0.144-0.288c0-2.712-1.128-3.12-1.943-3.12
		c-0.912,0-1.92,0.264-1.92,1.008c0,0.264,0.023,0.408,0.047,0.48c0.049,0.096,0.072,0.264,0.072,0.432
		c0,0.312-0.432,0.816-1.127,0.816c-0.553,0-0.841-0.289-0.841-0.864c0-1.368,1.992-2.665,3.96-2.665
		c1.752,0,3.625,0.648,3.625,4.057v3.528c0,1.104,0.024,2.04,0.721,2.04c0.305,0,0.707-0.234,0.888-0.385
		c0.271,0.152,0.368,0.354,0.407,0.648c-0.496,0.48-1.36,0.889-2.279,0.889c-1.209,0-1.465-0.648-1.607-1.394L79.776,137.695
		L79.776,137.695z M77.928,133.759c-1.776,0.455-2.28,1.56-2.28,2.64c0,0.744,0.527,1.704,1.729,1.704
		c0.672,0,1.488-0.553,2.111-1.057c0.192-0.144,0.336-0.312,0.336-0.623v-3.168L77.928,133.759z"/>
	<path d="M85.656,135.511c0.145,0.6,0.408,1.656,0.936,2.207c0.248,0.258,0.769,0.576,1.705,0.576c0.889,0,2.041-0.504,2.041-1.68
		c0-1.031-0.457-1.535-2.448-2.352c-1.849-0.768-2.64-1.512-2.64-3.264c0-1.537,1.607-2.688,3.383-2.688
		c1.248,0,2.4,0.336,3.145,0.456c-0.023,0.792-0.072,1.68-0.145,2.544c-0.143,0.144-0.623,0.168-0.768,0.024
		c-0.312-2.041-1.703-2.232-2.232-2.232c-0.815,0-1.68,0.553-1.68,1.536c0,1.319,0.955,1.692,2.4,2.228
		c1.632,0.604,2.809,1.557,2.809,3.196c0,2.376-2.472,3.024-3.815,3.024c-0.888,0-1.536-0.096-2.185-0.264
		c-0.168-0.049-0.312-0.049-0.479-0.049c-0.12,0-0.36,0.023-0.601,0.072c0-1.008-0.072-2.137-0.168-3.312
		C85.056,135.392,85.512,135.367,85.656,135.511z"/>
	<path d="M95.016,135.511c0.144,0.6,0.407,1.656,0.937,2.207c0.248,0.258,0.768,0.576,1.705,0.576c0.887,0,2.039-0.504,2.039-1.68
		c0-1.031-0.455-1.535-2.447-2.352c-1.849-0.768-2.641-1.512-2.641-3.264c0-1.537,1.607-2.688,3.385-2.688
		c1.248,0,2.399,0.336,3.144,0.456c-0.024,0.792-0.072,1.68-0.144,2.544c-0.145,0.144-0.625,0.168-0.769,0.024
		c-0.312-2.041-1.704-2.232-2.231-2.232c-0.816,0-1.681,0.553-1.681,1.536c0,1.319,0.955,1.692,2.399,2.228
		c1.633,0.604,2.81,1.557,2.81,3.196c0,2.376-2.472,3.024-3.815,3.024c-0.889,0-1.537-0.096-2.185-0.264
		c-0.168-0.049-0.312-0.049-0.479-0.049c-0.121,0-0.36,0.023-0.601,0.072c0-1.008-0.071-2.137-0.168-3.312
		C94.416,135.392,94.873,135.367,95.016,135.511z"/>
	<path d="M108.552,138.104c0.144,0.144,0.144,0.647,0,0.792c-0.793-0.023-1.705-0.048-2.665-0.048s-1.896,0.024-2.688,0.048
		c-0.144-0.145-0.144-0.648,0-0.792c1.465-0.12,1.729-0.192,1.729-2.185v-4.68c0-1.369-0.252-1.51-1.561-1.633
		c-0.048-0.145-0.096-0.527-0.048-0.672c1.656-0.217,2.604-0.432,3.289-0.695c0.192,0,0.312,0.071,0.312,0.168
		c0,0-0.096,1.535-0.096,2.729v4.783C106.824,137.912,107.087,138.007,108.552,138.104z M105.888,123.318
		c0.648,0,1.152,0.672,1.152,1.248c0,0.506-0.576,1.152-1.248,1.152c-0.576,0-1.152-0.625-1.152-1.25
		C104.64,123.895,105.312,123.318,105.888,123.318z"/>
	<path d="M115.201,138.104c0.143,0.144,0.143,0.647,0,0.792c-0.841-0.023-1.992-0.048-2.953-0.048c-0.959,0-1.799,0.024-2.64,0.048
		c-0.144-0.145-0.144-0.648,0-0.792c1.296-0.097,1.681-0.192,1.681-2.185v-6.432h-1.656c-0.096,0-0.12-0.025-0.12-0.145v-0.312
		c0-0.191,0.12-0.48,0.552-0.48h1.225v-0.959c0-3.746,2.231-5.498,4.248-5.498c0.912,0,1.537,0.072,2.16,0.505
		c0.504,0.384,0.768,0.815,0.768,1.224c0,0.48-0.575,0.984-0.983,0.984c-0.504,0-0.769-0.336-0.96-0.768
		c-0.336-0.84-0.721-1.129-1.439-1.129c-0.793,0-1.896,0.576-1.896,4.272v1.368h2.592c0.12,0,0.191,0.048,0.191,0.144v0.479
		c0,0.217-0.336,0.312-0.551,0.312h-2.232v6.434C113.184,137.912,113.328,138.007,115.201,138.104z"/>
	<path d="M118.992,144.416c-0.648,0-1.127-0.383-1.127-0.888c0-0.312,0.359-1.032,1.055-1.032c0.265,0,0.36,0.072,0.697,0.072
		c0.6,0,0.936-0.216,1.199-0.695c0.359-0.744,0.65-1.408,0.936-2.209c0.24-0.672-0.127-1.772-0.336-2.256l-2.715-6.312
		c-0.629-1.464-0.941-1.681-1.894-1.8c-0.144-0.145-0.144-0.648,0-0.793c0.479,0.025,1.128,0.049,1.944,0.049
		c0.863,0,1.824-0.023,2.711-0.049c0.145,0.145,0.145,0.648,0,0.793c-1.344,0.103-1.219,0.547-0.787,1.56l2.13,4.992
		c0.204,0.476,0.405,0.411,0.573,0.024l2.381-5.498c0.384-0.863-0.395-1.008-1.152-1.08c-0.145-0.144-0.145-0.647,0-0.791
		c0.721,0.023,1.464,0.047,2.184,0.047c0.672,0,1.225-0.023,1.705-0.047c0.145,0.144,0.145,0.647,0,0.791
		c-1.127,0.138-1.472,0.521-1.943,1.537c-1.254,2.697-2.328,5.16-4.25,9.793c-0.295,0.709-0.608,1.396-0.983,2.063
		C120.457,144.224,119.496,144.416,118.992,144.416z"/>
</g>
</svg>
