<?xml version="1.0" encoding="utf-8"?>
<!-- Generator: Adobe Illustrator 16.0.0, SVG Export Plug-In . SVG Version: 6.00 Build 0)  -->
<!DOCTYPE svg PUBLIC "-//W3C//DTD SVG 1.1//EN" "http://www.w3.org/Graphics/SVG/1.1/DTD/svg11.dtd">
<svg version="1.1"
	 id="Layer_1" xmlns:cc="http://creativecommons.org/ns#" xmlns:dc="http://purl.org/dc/elements/1.1/" xmlns:rdf="http://www.w3.org/1999/02/22-rdf-syntax-ns#"
	 xmlns="http://www.w3.org/2000/svg" xmlns:xlink="http://www.w3.org/1999/xlink" x="0px" y="0px" width="21px" height="20.042px"
	 viewBox="1.458 0.917 21 20.042" enable-background="new 1.458 0.917 21 20.042" xml:space="preserve">
<path fill="none" stroke="#000000" stroke-miterlimit="10" d="M22,8.8c0,0.2-0.104,0.4-0.312,0.6l-4.361,4.2l1.031,6.1
	c0.01,0,0.014,0.102,0.014,0.201c0,0.199-0.044,0.299-0.133,0.399c-0.079,0.101-0.199,0.2-0.36,0.2c-0.151,0-0.312,0-0.479-0.1
	L12,17.5l-5.396,2.9c-0.176,0.1-0.337,0.1-0.481,0.1c-0.168,0-0.296-0.1-0.385-0.2c-0.08-0.101-0.12-0.2-0.12-0.399
	c0,0,0.008-0.101,0.024-0.2L6.676,13.6L2.301,9.4c-0.2-0.2-0.3-0.4-0.3-0.6c0-0.3,0.225-0.5,0.673-0.5l6.033-0.9l2.705-5.5
	c0.152-0.3,0.349-0.5,0.589-0.5c0.24,0,0.437,0.2,0.589,0.5l2.704,5.5l6.034,0.9C21.775,8.3,22,8.5,22,8.8"/>
</svg>
